<mxfile host="65bd71144e">
    <diagram id="Mbyw4eY1YGAOICBjrvZL" name="Página-1">
        <mxGraphModel dx="1101" dy="740" grid="1" gridSize="10" guides="1" tooltips="1" connect="1" arrows="1" fold="1" page="1" pageScale="1" pageWidth="1169" pageHeight="1654" background="#ADADAD" math="0" shadow="1">
            <root>
                <mxCell id="0"/>
                <mxCell id="1" parent="0"/>
                <mxCell id="61" value="" style="edgeStyle=none;html=1;fontSize=30;fontColor=#FFFFFF;dashed=1;rounded=0;" parent="1" source="24" target="59" edge="1">
                    <mxGeometry relative="1" as="geometry"/>
                </mxCell>
                <mxCell id="67" value="" style="edgeStyle=none;html=1;fontSize=30;fontColor=#FFFFFF;rounded=0;" parent="1" source="24" target="46" edge="1">
                    <mxGeometry relative="1" as="geometry"/>
                </mxCell>
                <mxCell id="24" value="Cohetes" style="rounded=0;whiteSpace=wrap;html=1;fillColor=#dae8fc;gradientColor=#7ea6e0;strokeColor=#6c8ebf;fontColor=#000000;fontStyle=1;fontSize=15;" parent="1" vertex="1">
                    <mxGeometry x="505" y="295" width="170" height="60" as="geometry"/>
                </mxCell>
                <mxCell id="65" value="" style="edgeStyle=none;html=1;fontSize=30;fontColor=#FFFFFF;entryX=0.5;entryY=0;entryDx=0;entryDy=0;rounded=0;" parent="1" source="25" target="28" edge="1">
                    <mxGeometry relative="1" as="geometry"/>
                </mxCell>
                <mxCell id="25" value="Empresa aereoespacial" style="rounded=0;whiteSpace=wrap;html=1;fillColor=#dae8fc;gradientColor=#7ea6e0;strokeColor=#6c8ebf;fontStyle=1;fontColor=#000000;fontSize=15;" parent="1" vertex="1">
                    <mxGeometry x="265" y="180" width="190" height="60" as="geometry"/>
                </mxCell>
                <mxCell id="66" value="" style="edgeStyle=none;html=1;fontSize=30;fontColor=#FFFFFF;rounded=0;" parent="1" source="28" target="24" edge="1">
                    <mxGeometry relative="1" as="geometry"/>
                </mxCell>
                <mxCell id="28" value="Tiene" style="shape=rhombus;perimeter=rhombusPerimeter;whiteSpace=wrap;html=1;align=center;fillColor=#f8cecc;gradientColor=#ea6b66;strokeColor=#b85450;fontColor=#000000;rounded=0;" parent="1" vertex="1">
                    <mxGeometry x="300" y="295" width="120" height="60" as="geometry"/>
                </mxCell>
                <mxCell id="33" value="N:N" style="text;html=1;align=center;verticalAlign=middle;resizable=0;points=[];autosize=1;strokeColor=none;fillColor=none;rounded=0;fontColor=#FFFFFF;" parent="1" vertex="1">
                    <mxGeometry x="570" y="160" width="40" height="20" as="geometry"/>
                </mxCell>
                <mxCell id="69" value="" style="edgeStyle=none;html=1;fontSize=30;fontColor=#FFFFFF;entryX=0.5;entryY=0;entryDx=0;entryDy=0;rounded=0;labelBackgroundColor=none;" parent="1" source="34" target="36" edge="1">
                    <mxGeometry relative="1" as="geometry"/>
                </mxCell>
                <mxCell id="34" value="Etapas" style="rounded=0;whiteSpace=wrap;html=1;fillColor=#dae8fc;gradientColor=#7ea6e0;strokeColor=#6c8ebf;fontColor=#000000;fontStyle=1;fontSize=15;" parent="1" vertex="1">
                    <mxGeometry x="735" y="180" width="170" height="60" as="geometry"/>
                </mxCell>
                <mxCell id="70" value="" style="edgeStyle=none;html=1;fontSize=30;fontColor=#FFFFFF;rounded=0;" parent="1" source="36" target="52" edge="1">
                    <mxGeometry relative="1" as="geometry"/>
                </mxCell>
                <mxCell id="36" value="Tiene" style="shape=rhombus;perimeter=rhombusPerimeter;whiteSpace=wrap;html=1;align=center;fillColor=#f8cecc;gradientColor=#ea6b66;strokeColor=#b85450;fontColor=#000000;rounded=0;" parent="1" vertex="1">
                    <mxGeometry x="760" y="290" width="120" height="60" as="geometry"/>
                </mxCell>
                <mxCell id="37" value="1:N" style="text;html=1;align=center;verticalAlign=middle;resizable=0;points=[];autosize=1;strokeColor=none;fillColor=none;rounded=0;" parent="1" vertex="1">
                    <mxGeometry x="845" y="280" width="30" height="20" as="geometry"/>
                </mxCell>
                <mxCell id="68" value="" style="edgeStyle=none;html=1;fontSize=30;fontColor=#FFFFFF;rounded=0;" parent="1" source="46" target="34" edge="1">
                    <mxGeometry relative="1" as="geometry"/>
                </mxCell>
                <mxCell id="46" value="Tiene" style="rhombus;whiteSpace=wrap;html=1;rounded=0;fillColor=#f8cecc;strokeColor=#b85450;gradientColor=#ea6b66;fontColor=#000000;" parent="1" vertex="1">
                    <mxGeometry x="537.5" y="185" width="105" height="50" as="geometry"/>
                </mxCell>
                <mxCell id="50" value="1:N" style="text;html=1;align=center;verticalAlign=middle;resizable=0;points=[];autosize=1;strokeColor=none;fillColor=none;rounded=0;" parent="1" vertex="1">
                    <mxGeometry x="385" y="290" width="30" height="20" as="geometry"/>
                </mxCell>
                <mxCell id="52" value="Partes" style="rounded=0;whiteSpace=wrap;html=1;fillColor=#dae8fc;gradientColor=#7ea6e0;strokeColor=#6c8ebf;fontColor=#000000;fontStyle=1;fontSize=15;" parent="1" vertex="1">
                    <mxGeometry x="735" y="410" width="170" height="60" as="geometry"/>
                </mxCell>
                <mxCell id="54" value="&lt;span style=&quot;font-size: 30px;&quot;&gt;&lt;u&gt;Modelo Entidad Relación&lt;/u&gt; (MER)&lt;/span&gt;" style="text;html=1;align=center;verticalAlign=middle;resizable=0;points=[];autosize=1;strokeColor=none;fillColor=none;fontSize=3;fontColor=#141AC9;fontStyle=1;rounded=0;labelBackgroundColor=none;" parent="1" vertex="1">
                    <mxGeometry x="355" y="90" width="470" height="20" as="geometry"/>
                </mxCell>
                <mxCell id="56" value="Viaje Aereoespacial" style="rounded=0;whiteSpace=wrap;html=1;fillColor=#dae8fc;gradientColor=#7ea6e0;strokeColor=#6c8ebf;fontStyle=1;fontColor=#000000;fontSize=15;dashed=1;" parent="1" vertex="1">
                    <mxGeometry x="265" y="410" width="190" height="60" as="geometry"/>
                </mxCell>
                <mxCell id="64" value="" style="edgeStyle=none;html=1;fontSize=30;fontColor=#FFFFFF;dashed=1;rounded=0;" parent="1" source="59" target="56" edge="1">
                    <mxGeometry relative="1" as="geometry"/>
                </mxCell>
                <mxCell id="59" value="Puede" style="shape=rhombus;perimeter=rhombusPerimeter;whiteSpace=wrap;html=1;align=center;fillColor=#f8cecc;gradientColor=#ea6b66;strokeColor=#b85450;fontColor=#000000;rounded=0;" parent="1" vertex="1">
                    <mxGeometry x="530" y="410" width="120" height="60" as="geometry"/>
                </mxCell>
                <mxCell id="71" value="1:N" style="text;html=1;align=center;verticalAlign=middle;resizable=0;points=[];autosize=1;strokeColor=none;fillColor=none;rounded=0;" parent="1" vertex="1">
                    <mxGeometry x="612.5" y="400" width="30" height="20" as="geometry"/>
                </mxCell>
                <mxCell id="72" value="&lt;b&gt;&lt;font&gt;&lt;u&gt;Relational Data Base Managment System&lt;/u&gt; (RDBMS)&lt;/font&gt;&lt;/b&gt;" style="text;html=1;align=center;verticalAlign=middle;resizable=0;points=[];autosize=1;strokeColor=none;fillColor=none;fontSize=30;fontColor=#141AC9;labelBackgroundColor=none;rounded=0;" parent="1" vertex="1">
                    <mxGeometry x="220" y="730" width="740" height="40" as="geometry"/>
                </mxCell>
                <mxCell id="201" value="Empresa" style="swimlane;childLayout=stackLayout;horizontal=1;startSize=40;horizontalStack=0;rounded=1;fontSize=25;fontStyle=0;strokeWidth=2;resizeParent=0;resizeLast=1;shadow=0;dashed=0;align=center;labelBackgroundColor=none;labelBorderColor=none;fillColor=#dae8fc;gradientColor=#7ea6e0;strokeColor=#6c8ebf;fontColor=#000000;spacingTop=0;spacingBottom=0;" parent="1" vertex="1">
                    <mxGeometry x="120" y="810" width="280" height="170" as="geometry"/>
                </mxCell>
                <mxCell id="207" value="" style="endArrow=none;html=1;rounded=0;labelBackgroundColor=none;comic=0;fontSize=20;fontColor=#000000;exitX=0;exitY=0.25;exitDx=0;exitDy=0;entryX=1;entryY=0.25;entryDx=0;entryDy=0;labelBorderColor=none;fillColor=#dae8fc;gradientColor=#7ea6e0;strokeColor=#6c8ebf;spacingTop=0;spacingBottom=0;" parent="201" source="202" target="202" edge="1">
                    <mxGeometry relative="1" as="geometry">
                        <mxPoint x="55" y="59.5" as="sourcePoint"/>
                        <mxPoint x="215" y="59.5" as="targetPoint"/>
                    </mxGeometry>
                </mxCell>
                <mxCell id="202" value="Id: INTEGER NN AI (PK)&#10;&#10;login: VARCHAR (30) NN&#10;password: VARCHAR (32) NN&#10;name: VARCHAR (20) NN&#10;email: VARCHAR (40) NN UNIQUE&#10;" style="align=left;strokeColor=#6c8ebf;fillColor=#dae8fc;spacingLeft=4;fontSize=15;verticalAlign=top;resizable=0;rotatable=0;part=1;labelBackgroundColor=none;labelBorderColor=none;gradientColor=#7ea6e0;fontColor=#000000;spacingTop=0;spacingBottom=0;" parent="201" vertex="1">
                    <mxGeometry y="40" width="280" height="130" as="geometry"/>
                </mxCell>
                <mxCell id="209" value="Cohete" style="swimlane;childLayout=stackLayout;horizontal=1;startSize=40;horizontalStack=0;rounded=1;fontSize=25;fontStyle=0;strokeWidth=2;resizeParent=0;resizeLast=1;shadow=0;dashed=0;align=center;labelBackgroundColor=none;labelBorderColor=none;fillColor=#dae8fc;gradientColor=#7ea6e0;strokeColor=#6c8ebf;fontColor=#000000;" parent="1" vertex="1">
                    <mxGeometry x="400" y="1050" width="315" height="150" as="geometry"/>
                </mxCell>
                <mxCell id="210" value="" style="endArrow=none;html=1;rounded=0;labelBackgroundColor=none;comic=0;fontSize=20;fontColor=#000000;exitX=0;exitY=0.25;exitDx=0;exitDy=0;entryX=1;entryY=0.25;entryDx=0;entryDy=0;fillColor=#dae8fc;gradientColor=#7ea6e0;strokeColor=#6c8ebf;" parent="209" source="211" target="211" edge="1">
                    <mxGeometry relative="1" as="geometry">
                        <mxPoint x="55" y="59.5" as="sourcePoint"/>
                        <mxPoint x="215" y="59.5" as="targetPoint"/>
                    </mxGeometry>
                </mxCell>
                <mxCell id="211" value="Id: INTEGER NN AI (PK)&#10;&#10;name: VARCHAR(30) NN UNIQUE&#10;creation_date: DATE NN&#10;empresa_id: INTEGER NN FK" style="align=left;strokeColor=#6c8ebf;fillColor=#dae8fc;spacingLeft=4;fontSize=15;verticalAlign=top;resizable=0;rotatable=0;part=1;labelBackgroundColor=none;labelBorderColor=none;gradientColor=#7ea6e0;fontColor=#000000;" parent="209" vertex="1">
                    <mxGeometry y="40" width="315" height="110" as="geometry"/>
                </mxCell>
                <mxCell id="224" value="Viaje Aereoespacial" style="swimlane;childLayout=stackLayout;horizontal=1;startSize=40;horizontalStack=0;rounded=1;fontSize=25;fontStyle=0;strokeWidth=2;resizeParent=0;resizeLast=1;shadow=0;dashed=0;align=center;labelBackgroundColor=none;labelBorderColor=none;fillColor=#dae8fc;gradientColor=#7ea6e0;strokeColor=#6c8ebf;fontColor=#000000;" parent="1" vertex="1">
                    <mxGeometry x="120" y="1230" width="280" height="130" as="geometry"/>
                </mxCell>
                <mxCell id="225" value="" style="endArrow=none;html=1;rounded=0;labelBackgroundColor=none;comic=0;fontSize=20;fontColor=#000000;exitX=0;exitY=0.25;exitDx=0;exitDy=0;entryX=1;entryY=0.25;entryDx=0;entryDy=0;fillColor=#dae8fc;gradientColor=#7ea6e0;strokeColor=#6c8ebf;" parent="224" source="226" target="226" edge="1">
                    <mxGeometry relative="1" as="geometry">
                        <mxPoint x="55" y="59.5" as="sourcePoint"/>
                        <mxPoint x="215" y="59.5" as="targetPoint"/>
                    </mxGeometry>
                </mxCell>
                <mxCell id="226" value="Id: INTEGER NN AI (PK)&#10;&#10;number_trips: INTEGER NN&#10;rocket_id: INT NN FK " style="align=left;strokeColor=#6c8ebf;fillColor=#dae8fc;spacingLeft=4;fontSize=15;verticalAlign=top;resizable=0;rotatable=0;part=1;labelBackgroundColor=none;labelBorderColor=none;gradientColor=#7ea6e0;fontColor=#000000;" parent="224" vertex="1">
                    <mxGeometry y="40" width="280" height="90" as="geometry"/>
                </mxCell>
                <mxCell id="227" value="Etapa" style="swimlane;childLayout=stackLayout;horizontal=1;startSize=40;horizontalStack=0;rounded=1;fontSize=25;fontStyle=0;strokeWidth=2;resizeParent=0;resizeLast=1;shadow=0;dashed=0;align=center;labelBackgroundColor=none;labelBorderColor=none;fillColor=#dae8fc;gradientColor=#7ea6e0;strokeColor=#6c8ebf;fontColor=#000000;" parent="1" vertex="1">
                    <mxGeometry x="770" y="950" width="280" height="280" as="geometry"/>
                </mxCell>
                <mxCell id="228" value="" style="endArrow=none;html=1;rounded=0;labelBackgroundColor=none;comic=0;fontSize=20;fontColor=#000000;exitX=0;exitY=0.25;exitDx=0;exitDy=0;entryX=1;entryY=0.25;entryDx=0;entryDy=0;fillColor=#dae8fc;gradientColor=#7ea6e0;strokeColor=#6c8ebf;" parent="227" source="229" target="229" edge="1">
                    <mxGeometry relative="1" as="geometry">
                        <mxPoint x="55" y="59.5" as="sourcePoint"/>
                        <mxPoint x="215" y="59.5" as="targetPoint"/>
                    </mxGeometry>
                </mxCell>
                <mxCell id="229" value="Id: INTEGER NN AI (PK)&#10;&#10;stage_name: VARCHAR(30) NN&#10;&#10;&quot;&#10;first_stage: BOOLEAN&#10;middle_compartment: BOOLEAN&#10;second_stage: BOOLEAN&#10;third_stage: BOOLEAN&#10;fourth_stage: BOOLEAN&#10;fifth_stage: BOOLEAN&#10;useful_load: BOOLEAN&#10;&quot;" style="align=left;strokeColor=#6c8ebf;fillColor=#dae8fc;spacingLeft=4;fontSize=15;verticalAlign=top;resizable=0;rotatable=0;part=1;labelBackgroundColor=none;labelBorderColor=none;gradientColor=#7ea6e0;fontColor=#000000;" parent="227" vertex="1">
                    <mxGeometry y="40" width="280" height="240" as="geometry"/>
                </mxCell>
                <mxCell id="230" value="Partes" style="swimlane;childLayout=stackLayout;horizontal=1;startSize=40;horizontalStack=0;rounded=1;fontSize=25;fontStyle=0;strokeWidth=2;resizeParent=0;resizeLast=1;shadow=0;dashed=0;align=center;labelBackgroundColor=none;labelBorderColor=none;fillColor=#dae8fc;gradientColor=#7ea6e0;strokeColor=#6c8ebf;fontColor=#000000;" parent="1" vertex="1">
                    <mxGeometry x="612.5" y="1310" width="280" height="130" as="geometry"/>
                </mxCell>
                <mxCell id="231" value="" style="endArrow=none;html=1;rounded=0;labelBackgroundColor=none;comic=0;fontSize=20;fontColor=#000000;exitX=0;exitY=0.25;exitDx=0;exitDy=0;entryX=1;entryY=0.25;entryDx=0;entryDy=0;fillColor=#dae8fc;gradientColor=#7ea6e0;strokeColor=#6c8ebf;" parent="230" source="232" target="232" edge="1">
                    <mxGeometry relative="1" as="geometry">
                        <mxPoint x="55" y="59.5" as="sourcePoint"/>
                        <mxPoint x="215" y="59.5" as="targetPoint"/>
                    </mxGeometry>
                </mxCell>
                <mxCell id="232" value="Id: INTEGER NN AI (PK)&#10;&#10;part_name: VARCHAR(30) NN UNIQUE&#10;etapa_id: INT NN FK&#10;" style="align=left;strokeColor=#6c8ebf;fillColor=#dae8fc;spacingLeft=4;fontSize=15;verticalAlign=top;resizable=0;rotatable=0;part=1;labelBackgroundColor=none;labelBorderColor=none;gradientColor=#7ea6e0;fontColor=#000000;" parent="230" vertex="1">
                    <mxGeometry y="40" width="280" height="90" as="geometry"/>
                </mxCell>
                <mxCell id="235" value="" style="fontSize=12;html=1;endArrow=ERmany;labelBackgroundColor=none;comic=0;fontColor=#000000;entryX=0;entryY=0.5;entryDx=0;entryDy=0;strokeWidth=3;exitX=0.5;exitY=1;exitDx=0;exitDy=0;edgeStyle=orthogonalEdgeStyle;startArrow=ERone;startFill=0;endFill=0;dashed=1;" parent="1" source="202" target="211" edge="1">
                    <mxGeometry width="100" height="100" relative="1" as="geometry">
                        <mxPoint x="260" y="1030" as="sourcePoint"/>
                        <mxPoint x="760" y="990" as="targetPoint"/>
                    </mxGeometry>
                </mxCell>
                <mxCell id="240" value="" style="edgeStyle=orthogonalEdgeStyle;fontSize=12;html=1;endArrow=ERone;startArrow=ERmany;labelBackgroundColor=none;labelBorderColor=none;comic=0;fontColor=#000000;strokeWidth=3;jumpSize=100;endFill=0;startFill=0;exitX=0.477;exitY=-0.017;exitDx=0;exitDy=0;exitPerimeter=0;entryX=0.5;entryY=1;entryDx=0;entryDy=0;dashed=1;" parent="1" source="209" target="245" edge="1">
                    <mxGeometry width="100" height="100" relative="1" as="geometry">
                        <mxPoint x="550" y="1000" as="sourcePoint"/>
                        <mxPoint x="650" y="900" as="targetPoint"/>
                        <Array as="points">
                            <mxPoint x="550" y="1000"/>
                            <mxPoint x="585" y="1000"/>
                        </Array>
                    </mxGeometry>
                </mxCell>
                <mxCell id="241" value="" style="edgeStyle=orthogonalEdgeStyle;fontSize=12;html=1;endArrow=ERone;startArrow=ERmany;labelBackgroundColor=none;labelBorderColor=none;comic=0;fontColor=#000000;strokeWidth=3;jumpSize=100;endFill=0;startFill=0;exitX=0.5;exitY=0;exitDx=0;exitDy=0;entryX=0.5;entryY=1;entryDx=0;entryDy=0;dashed=1;" parent="1" source="230" target="229" edge="1">
                    <mxGeometry width="100" height="100" relative="1" as="geometry">
                        <mxPoint x="870" y="1232" as="sourcePoint"/>
                        <mxPoint x="985" y="1030" as="targetPoint"/>
                        <Array as="points">
                            <mxPoint x="753" y="1270"/>
                            <mxPoint x="910" y="1270"/>
                        </Array>
                    </mxGeometry>
                </mxCell>
                <mxCell id="242" value="" style="edgeStyle=orthogonalEdgeStyle;fontSize=12;html=1;endArrow=ERone;startArrow=baseDash;labelBackgroundColor=none;labelBorderColor=none;comic=0;fontColor=#000000;strokeWidth=3;jumpSize=100;endFill=0;startFill=0;entryX=0.5;entryY=1;entryDx=0;entryDy=0;exitX=1;exitY=0.5;exitDx=0;exitDy=0;dashed=1;" parent="1" source="226" target="211" edge="1">
                    <mxGeometry width="100" height="100" relative="1" as="geometry">
                        <mxPoint x="557" y="1540" as="sourcePoint"/>
                        <mxPoint x="557" y="1220" as="targetPoint"/>
                        <Array as="points"/>
                    </mxGeometry>
                </mxCell>
                <mxCell id="243" value="cohete_etapa" style="swimlane;childLayout=stackLayout;horizontal=1;startSize=40;horizontalStack=0;rounded=1;fontSize=25;fontStyle=0;strokeWidth=2;resizeParent=0;resizeLast=1;shadow=0;dashed=0;align=center;labelBackgroundColor=none;labelBorderColor=none;fillColor=#dae8fc;gradientColor=#7ea6e0;strokeColor=#6c8ebf;fontColor=#000000;" parent="1" vertex="1">
                    <mxGeometry x="470" y="810" width="230" height="130" as="geometry"/>
                </mxCell>
                <mxCell id="244" value="" style="endArrow=none;html=1;rounded=0;labelBackgroundColor=none;comic=0;fontSize=20;fontColor=#000000;exitX=0;exitY=0.25;exitDx=0;exitDy=0;entryX=1;entryY=0.25;entryDx=0;entryDy=0;fillColor=#dae8fc;gradientColor=#7ea6e0;strokeColor=#6c8ebf;" parent="243" source="245" target="245" edge="1">
                    <mxGeometry relative="1" as="geometry">
                        <mxPoint x="55" y="59.5" as="sourcePoint"/>
                        <mxPoint x="215" y="59.5" as="targetPoint"/>
                    </mxGeometry>
                </mxCell>
                <mxCell id="245" value="Id: INTEGER NN AI (PK)&#10;&#10;cohete_id: INTEGER NN FK&#10;etapa_id: INTEGER NN FK" style="align=left;strokeColor=#6c8ebf;fillColor=#dae8fc;spacingLeft=4;fontSize=15;verticalAlign=top;resizable=0;rotatable=0;part=1;labelBackgroundColor=none;labelBorderColor=none;gradientColor=#7ea6e0;fontColor=#000000;" parent="243" vertex="1">
                    <mxGeometry y="40" width="230" height="90" as="geometry"/>
                </mxCell>
                <mxCell id="246" value="" style="edgeStyle=orthogonalEdgeStyle;fontSize=12;html=1;endArrow=ERone;startArrow=ERmany;labelBackgroundColor=none;labelBorderColor=none;comic=0;fontColor=#000000;strokeWidth=3;jumpSize=100;endFill=0;startFill=0;exitX=0.5;exitY=0;exitDx=0;exitDy=0;entryX=1;entryY=0.5;entryDx=0;entryDy=0;dashed=1;" parent="1" source="227" target="245" edge="1">
                    <mxGeometry width="100" height="100" relative="1" as="geometry">
                        <mxPoint x="719.9950000000001" y="1007.1099999999999" as="sourcePoint"/>
                        <mxPoint x="784.74" y="840" as="targetPoint"/>
                        <Array as="points">
                            <mxPoint x="910" y="895"/>
                        </Array>
                    </mxGeometry>
                </mxCell>
            </root>
        </mxGraphModel>
    </diagram>
</mxfile>